<?xml version="1.0" standalone="no"?>
<svg xmlns:xlink="http://www.w3.org/1999/xlink" id="wave" style="transform:rotate(180deg); transition: 0.3s" viewBox="0 0 1440 160" version="1.1" xmlns="http://www.w3.org/2000/svg"><defs><linearGradient id="sw-gradient-0" x1="0" x2="0" y1="1" y2="0"><stop stop-color="rgba(255, 249, 234, 1)" offset="0%"/><stop stop-color="rgba(255, 249, 234, 1)" offset="100%"/></linearGradient></defs><path style="transform:translate(0, 0px); opacity:1" fill="url(#sw-gradient-0)" d="M0,80L30,69.3C60,59,120,37,180,26.7C240,16,300,16,360,32C420,48,480,80,540,82.7C600,85,660,59,720,48C780,37,840,43,900,37.3C960,32,1020,16,1080,10.7C1140,5,1200,11,1260,13.3C1320,16,1380,16,1440,26.7C1500,37,1560,59,1620,66.7C1680,75,1740,69,1800,56C1860,43,1920,21,1980,32C2040,43,2100,85,2160,104C2220,123,2280,117,2340,98.7C2400,80,2460,48,2520,34.7C2580,21,2640,27,2700,48C2760,69,2820,107,2880,117.3C2940,128,3000,112,3060,101.3C3120,91,3180,85,3240,88C3300,91,3360,101,3420,88C3480,75,3540,37,3600,24C3660,11,3720,21,3780,21.3C3840,21,3900,11,3960,8C4020,5,4080,11,4140,32C4200,53,4260,91,4290,109.3L4320,128L4320,160L4290,160C4260,160,4200,160,4140,160C4080,160,4020,160,3960,160C3900,160,3840,160,3780,160C3720,160,3660,160,3600,160C3540,160,3480,160,3420,160C3360,160,3300,160,3240,160C3180,160,3120,160,3060,160C3000,160,2940,160,2880,160C2820,160,2760,160,2700,160C2640,160,2580,160,2520,160C2460,160,2400,160,2340,160C2280,160,2220,160,2160,160C2100,160,2040,160,1980,160C1920,160,1860,160,1800,160C1740,160,1680,160,1620,160C1560,160,1500,160,1440,160C1380,160,1320,160,1260,160C1200,160,1140,160,1080,160C1020,160,960,160,900,160C840,160,780,160,720,160C660,160,600,160,540,160C480,160,420,160,360,160C300,160,240,160,180,160C120,160,60,160,30,160L0,160Z"/></svg>